Coordinates
version=1
nRows=24
nColumns=38
inDegrees=no

Units are S.I. units (second, meters, Newtons, ...)
If the header above contains a line with 'inDegrees', this indicates whether rotational values are in degrees (yes) or radians (no).

endheader
time	pelvis_tilt	pelvis_list	pelvis_rotation	pelvis_tx	pelvis_ty	pelvis_tz	hip_flexion_r	hip_adduction_r	hip_rotation_r	knee_angle_r	ankle_angle_r	subtalar_angle_r	mtp_angle_r	hip_flexion_l	hip_adduction_l	hip_rotation_l	knee_angle_l	ankle_angle_l	subtalar_angle_l	mtp_angle_l	lumbar_extension	lumbar_bending	lumbar_rotation	arm_flex_r	arm_add_r	arm_rot_r	elbow_flex_r	pro_sup_r	wrist_flex_r	wrist_dev_r	arm_flex_l	arm_add_l	arm_rot_l	elbow_flex_l	pro_sup_l	wrist_flex_l	wrist_dev_l
0	2.96164	1.33517	-1.35315	0.733111	-0.421991	0.947	-0.189718	-0.0105078	-0.33853	0.229887	0.0426378	0	0	-0.343966	-0.0377819	-0.278797	0	0.00327028	0	0	-0.339606	0.0325296	0.112328	0.0266829	-0.274355	0.725235	0.490403	0.655654	0	0	0.0237425	-0.220371	0.417466	0.580133	1.5708	0	0
0.01	2.90794	1.34604	-1.3002	0.735379	-0.421532	0.946454	-0.178473	0.00529082	-0.332366	0.22217	0.036848	0	0	-0.329608	-0.0512757	-0.283984	0	0.00637547	0	0	-0.323553	0.0361261	0.114442	0.0420647	-0.239887	0.71038	0.419438	0.665373	0	0	0.0266493	-0.219956	0.4121	0.563682	1.5708	0	0
0.02	2.95789	1.34803	-1.34878	0.732476	-0.421431	0.946479	-0.175753	-0.0135636	-0.340708	0.231484	0.0437158	0	0	-0.330139	-0.0350236	-0.275879	0	0.00157109	0	0	-0.323816	0.02858	0.109458	0.0413259	-0.244922	0.709857	0.421392	0.664352	0	0	0.0260672	-0.215112	0.413268	0.558921	1.5708	0	0
0.03	2.95376	1.34873	-1.34659	0.732385	-0.421429	0.946419	-0.17446	-0.0132939	-0.338934	0.231541	0.0434752	0	0	-0.32959	-0.035057	-0.277584	0	0.00218635	0	0	-0.322947	0.0284666	0.109714	0.0416443	-0.244402	0.709422	0.420383	0.664142	0	0	0.0253499	-0.215855	0.415667	0.557725	1.5708	0	0
0.04	2.92844	1.35179	-1.32028	0.733002	-0.42246	0.946039	-0.168318	-0.00666172	-0.337159	0.231838	0.0416424	0	0	-0.323616	-0.040642	-0.285233	0	0.000640188	0	0	-0.320732	0.031606	0.108028	0.0438741	-0.241928	0.709703	0.418835	0.664268	0	0	0.0268243	-0.218276	0.417362	0.556914	1.5708	0	0
0.05	2.94614	1.34992	-1.34276	0.731941	-0.421671	0.946265	-0.171001	-0.0136509	-0.336249	0.233479	0.0437184	0	0	-0.328295	-0.0345404	-0.281637	0	0.00314098	0	0	-0.322174	0.0284893	0.110034	0.042262	-0.244429	0.709481	0.42012	0.66499	0	0	0.0253682	-0.215455	0.416915	0.552928	1.5708	0	0
0.06	2.93832	1.35081	-1.33756	0.731776	-0.421911	0.946204	-0.16832	-0.013027	-0.333525	0.23458	0.0430153	0	0	-0.327102	-0.0349198	-0.284487	0	0.00388262	0	0	-0.321559	0.0292043	0.111038	0.0429692	-0.244644	0.710156	0.419845	0.665484	0	0	0.025699	-0.214739	0.416386	0.550184	1.5708	0	0
0.07	2.91178	1.35435	-1.30963	0.73232	-0.422988	0.945836	-0.161524	-0.00630286	-0.331616	0.23492	0.040945	0	0	-0.320341	-0.0406055	-0.292132	0	0.00232707	0	0	-0.318825	0.0325591	0.108816	0.0455132	-0.242288	0.711443	0.418484	0.665904	0	0	0.027183	-0.216929	0.416644	0.549416	1.5708	0	0
0.08	2.91075	1.35487	-1.30955	0.731998	-0.422733	0.945776	-0.160906	-0.0067962	-0.331644	0.23494	0.0414554	0	0	-0.320099	-0.0400526	-0.292988	0	0.00229019	0	0	-0.318007	0.0321284	0.108049	0.0454487	-0.242084	0.712758	0.41857	0.666865	0	0	0.0264095	-0.217307	0.416875	0.547903	1.5708	0	0
0.09	2.93341	1.35318	-1.33466	0.730905	-0.421771	0.946049	-0.165393	-0.014167	-0.333614	0.234835	0.0437924	0	0	-0.325155	-0.0336814	-0.286307	0	0.00442123	0	0	-0.318668	0.0283293	0.107886	0.0432818	-0.243676	0.71341	0.419254	0.668383	0	0	0.0239683	-0.215709	0.416974	0.54528	1.5708	0	0
0.1	2.9314	1.35407	-1.33311	0.730621	-0.421676	0.945966	-0.164688	-0.0142631	-0.333503	0.234343	0.043882	0	0	-0.324346	-0.0333857	-0.286545	0	0.00472858	0	0	-0.317454	0.0280684	0.10694	0.043157	-0.243043	0.713933	0.418711	0.669473	0	0	0.0236111	-0.216053	0.417263	0.543595	1.5708	0	0
0.11	2.92998	1.35327	-1.33262	0.730382	-0.421886	0.946039	-0.165222	-0.0141422	-0.332483	0.23416	0.043429	0	0	-0.325113	-0.0332699	-0.287189	0	0.00503976	0	0	-0.318899	0.0279081	0.106476	0.0441007	-0.242876	0.714683	0.418807	0.670435	0	0	0.0242024	-0.216392	0.417549	0.542571	1.5708	0	0
0.12	2.92844	1.3525	-1.33211	0.730159	-0.422067	0.946109	-0.165803	-0.0139918	-0.331438	0.233812	0.043036	0	0	-0.32584	-0.0332022	-0.287751	0	0.00509873	0	0	-0.320199	0.0277438	0.106011	0.0450002	-0.242725	0.715118	0.419073	0.671255	0	0	0.0247569	-0.216655	0.418001	0.541388	1.5708	0	0
0.13	2.92698	1.35197	-1.33155	0.729892	-0.42217	0.946145	-0.166369	-0.0139363	-0.330621	0.233185	0.0426322	0	0	-0.326294	-0.0330676	-0.288125	0	0.00511049	0	0	-0.320963	0.0276107	0.105682	0.0454165	-0.242694	0.715051	0.419739	0.6718	0	0	0.0253522	-0.216884	0.419368	0.54001	1.5708	0	0
0.14	2.92439	1.35137	-1.32973	0.729591	-0.422202	0.946188	-0.16733	-0.0135121	-0.329795	0.231954	0.0415973	0	0	-0.326872	-0.0331772	-0.288752	0	0.00548845	0	0	-0.321493	0.0278649	0.10541	0.0456431	-0.242784	0.71516	0.420534	0.672108	0	0	0.0257653	-0.217165	0.420974	0.539007	1.5708	0	0
0.15	2.92102	1.35034	-1.32714	0.729338	-0.422226	0.94627	-0.169392	-0.0123369	-0.32759	0.229274	0.0398468	0	0	-0.32804	-0.0336521	-0.289531	0	0.00618825	0	0	-0.32248	0.0284007	0.104961	0.0464472	-0.242736	0.71651	0.420443	0.672188	0	0	0.0258885	-0.217653	0.421993	0.538756	1.5708	0	0
0.16	2.91448	1.34682	-1.32193	0.729178	-0.422345	0.946578	-0.175801	-0.0086311	-0.320924	0.221969	0.0352139	0	0	-0.331679	-0.0354315	-0.291485	0	0.00696754	0	0	-0.326391	0.0301132	0.105311	0.0478751	-0.243192	0.718517	0.420773	0.672732	0	0	0.0265694	-0.217833	0.421855	0.538569	1.5708	0	0
0.17	2.86056	1.3133	-1.28803	0.73206	-0.425586	0.950381	-0.205364	0.0164977	-0.289251	0.21139	0.0147691	0	0	-0.363866	-0.0543654	-0.317952	0	0.00442251	0	0	-0.368121	0.0441763	0.128407	0.0606075	-0.247457	0.722036	0.424431	0.67391	0	0	0.0378517	-0.216885	0.422953	0.541249	1.5708	0	0
0.18	2.85844	1.3147	-1.28706	0.731855	-0.425695	0.950256	-0.201497	0.0152174	-0.291489	0.215558	0.01697	0	0	-0.362248	-0.0538775	-0.317305	0	0.00444428	0	0	-0.366882	0.0437338	0.128521	0.0610374	-0.247149	0.721259	0.42379	0.675411	0	0	0.0381814	-0.217144	0.423292	0.541054	1.5708	0	0
0.19	2.90715	1.34912	-1.31822	0.728523	-0.422625	0.946387	-0.168563	-0.0110086	-0.324061	0.229559	0.0382039	0	0	-0.328912	-0.0345123	-0.292306	0	0.00762957	0	0	-0.324619	0.0296848	0.105594	0.0496163	-0.242816	0.717792	0.419326	0.677279	0	0	0.0273091	-0.218572	0.422902	0.538256	1.5708	0	0
0.2	2.90922	1.34913	-1.32017	0.728181	-0.422468	0.946377	-0.169309	-0.0118026	-0.325022	0.228844	0.038424	0	0	-0.329212	-0.0336883	-0.292204	0	0.00796629	0	0	-0.324504	0.0291366	0.104342	0.0497681	-0.242591	0.718239	0.419017	0.677864	0	0	0.0269462	-0.219238	0.423091	0.538946	1.5708	0	0
0.21	2.90838	1.34896	-1.32022	0.727939	-0.422365	0.946376	-0.169718	-0.0119737	-0.324702	0.228345	0.0381808	0	0	-0.329596	-0.0332946	-0.292751	0	0.00819495	0	0	-0.324546	0.0291199	0.104311	0.0499637	-0.242755	0.718805	0.418886	0.67859	0	0	0.0267768	-0.219494	0.422911	0.539523	1.5708	0	0
0.22	2.90642	1.34879	-1.31939	0.727711	-0.422358	0.946395	-0.169814	-0.0119028	-0.32366	0.228058	0.0377419	0	0	-0.329749	-0.0330472	-0.293415	0	0.0082046	0	0	-0.324709	0.0293516	0.104669	0.0502109	-0.243088	0.718875	0.418959	0.679478	0	0	0.026954	-0.219472	0.422801	0.539931	1.5708	0	0
0.23	2.90437	1.34865	-1.31875	0.727531	-0.422301	0.946419	-0.169943	-0.0117995	-0.322484	0.227642	0.0373452	0	0	-0.330189	-0.0328219	-0.294729	0	0.00859783	0	0	-0.324709	0.0295064	0.105267	0.0502407	-0.243403	0.718717	0.419116	0.680553	0	0	0.0269996	-0.219605	0.42334	0.54049	1.5708	0	0
